<?xml version="1.0" encoding="UTF-8"?>
<svg id="Layer_2" data-name="Layer 2" xmlns="http://www.w3.org/2000/svg" viewBox="0 0 272.88 42.82">
  <defs>
    <style>
      .cls-1 {
        fill: #7c3f00;
      }

      .cls-2 {
        fill: #ffd230;
      }

      .cls-3 {
        fill: #ffd54f;
      }
    </style>
  </defs>
  <g id="Layer_1-2" data-name="Layer 1">
    <g id="logo_h">
      <g id="iso">
        <g>
          <path class="cls-1" d="M12.29,42.82c-.23,0-.43-.12-.55-.32L.09,22.69c-.11-.2-.12-.44,0-.64L11.8,1.32c.11-.2.32-.32.55-.32h23.06c.23,0,.44.12.55.32l11.68,20.16c.11.19.11.44,0,.63-.12.2-.32.32-.56.32h-19.17v9.81h5.24c.35,0,.64.29.64.64v3.4c0,.35-.29.64-.64.64H14.88c-.35,0-.64-.29-.64-.64v-3.3c0-.35.29-.64.64-.64h4.32v-13.49c0-.2.1-.4.26-.52l.97-.7v-3.2c0-.19.08-.36.22-.48l.85-.73v-3.55c0-.35.29-.64.64-.64s.64.29.64.64v1l.64-.53c.11-.1.26-.15.41-.15.02,0,.04,0,.06,0,.17.02.33.1.43.24l1.12,1.43c.09.11.14.25.14.4v1.2l.87.6c.17.12.27.31.27.53v3.17c.3.21.48.55.48.92,0,.62-.5,1.12-1.12,1.12s-1.12-.5-1.12-1.12c0-.36.17-.69.46-.9,0,0,.02-.01.03-.02v-2.84l-.87-.6c-.17-.11-.27-.31-.27-.53v-1.31l-.58-.74-.95.79v1.18c0,.19-.08.36-.22.48l-.85.73v3.23c0,.2-.1.4-.26.52l-.97.7v13.8c0,.35-.29.64-.64.64h-4.32v2.02h17.02v-2.12h-5.24c-.35,0-.64-.29-.64-.64v-11.09c0-.35.29-.64.64-.64h18.7L35.05,2.28H12.73L1.37,22.36l11.28,19.19h22.44l1.07-1.79H15.22s-.04.06-.06.08c-.21.25-.52.4-.85.4-.62,0-1.12-.5-1.12-1.12s.5-1.12,1.12-1.12c.37,0,.71.19.92.48h22.07c.23,0,.44.12.55.32.11.2.11.45,0,.64l-1.84,3.06c-.12.19-.32.31-.55.31H12.29Z"/>
          <path id="path40" class="cls-1" d="M47.43,21.98c-.07.12-.2.19-.33.19h-19.42v10.32h5.49c.21,0,.38.17.38.38v3.4c0,.21-.17.38-.38.38H14.88c-.21,0-.38-.17-.38-.38v-3.3c0-.21.17-.38.38-.38h4.57v-13.74c0-.12.06-.24.16-.31l1.07-.78v-3.33c0-.11.05-.22.13-.29l.94-.8v-3.66c0-.21.17-.38.38-.38s.38.17.38.38v1.54l1.06-.88c.08-.07.18-.1.29-.09.1.01.2.06.26.14l1.12,1.43c.05.07.08.15.08.24v1.33l.98.68c.11.07.16.19.16.32v3.32c.29.14.48.43.48.78,0,.48-.39.87-.87.87s-.87-.39-.87-.87c0-.29.14-.54.35-.69.04-.03.08-.06.13-.08v-3.12l-.98-.68c-.11-.07-.16-.19-.16-.32v-1.4l-.8-1.01-1.25,1.04v1.3c0,.11-.05.22-.13.29l-.94.8v3.35c0,.12-.06.24-.16.31l-1.07.78v13.93c0,.21-.17.38-.38.38h-4.57v2.53h17.53v-2.63h-5.49c-.21,0-.38-.17-.38-.38v-11.09c0-.21.17-.38.38-.38h19.14L35.19,2.02H12.58L1.08,22.36l11.43,19.44h22.73l1.38-2.3H15.08c-.03.06-.07.12-.11.17-.16.19-.39.31-.66.31-.48,0-.87-.39-.87-.87s.39-.87.87-.87c.34,0,.64.2.78.48h22.21c.14,0,.26.07.33.2s.07.27,0,.39l-1.84,3.07c-.07.12-.2.19-.33.19H12.29c-.14,0-.26-.07-.33-.19L.31,22.56c-.07-.12-.07-.26,0-.38L12.02,1.45c.07-.12.2-.2.33-.2h23.06c.14,0,.26.07.33.19l.64,1.1,11.04,19.05c.07.12.07.26,0,.38h0Z"/>
          <path class="cls-1" d="M41.43,19.71c-.3,0-.58-.12-.79-.33s-.33-.49-.33-.79c0-.16.03-.32.1-.46l-7.61-12.84H13.75c-.35,0-.64-.29-.64-.64s.29-.64.64-.64h19.42c.23,0,.44.12.55.31l7.8,13.15c.58.04,1.04.53,1.04,1.12s-.5,1.12-1.12,1.12h0Z"/>
          <path id="path51" class="cls-1" d="M42.3,18.59c0,.48-.39.87-.87.87-.48,0-.87-.39-.87-.87,0-.17.05-.33.14-.47l-7.76-13.09H13.75c-.21,0-.38-.17-.38-.38s.17-.38.38-.38h19.42c.14,0,.26.07.33.19l7.87,13.27s.04,0,.07,0c.48,0,.87.39.87.87h0Z"/>
          <path class="cls-1" d="M4.35,22.81c-.17,0-.33-.07-.45-.19-.12-.12-.19-.28-.18-.45,0-.11.03-.22.09-.32L12.43,7.29c.12-.19.33-.31.55-.31h17.57c.21-.3.55-.48.92-.48.62,0,1.12.49,1.12,1.1v.02c0,.61-.5,1.12-1.12,1.12-.37,0-.71-.18-.92-.48H13.35l-8.45,14.25c-.11.19-.32.31-.55.31h0Z"/>
          <path id="path61" class="cls-1" d="M32.34,7.61c0,.48-.39.87-.87.86-.33,0-.63-.19-.77-.48H13.2l-8.52,14.37c-.07.12-.2.19-.33.19-.21,0-.38-.17-.38-.39,0-.07.02-.13.05-.19L12.65,7.42c.07-.12.2-.19.33-.19h17.72c.15-.29.45-.48.78-.48.47,0,.86.38.87.85,0,0,0,0,0,.01h0Z"/>
          <path class="cls-1" d="M13.3,32.07c-.62,0-1.12-.5-1.12-1.12,0-.13.02-.26.07-.38l-4.88-7.54c-.13-.2-.14-.46-.02-.66l6.8-11.7c.11-.2.33-.32.55-.32h2.93c.17,0,.33.07.45.19.12.12.19.29.19.46l-.07,2.94c0,.34-.29.62-.63.62h-.02c-.35,0-.62-.3-.62-.65l.05-2.29h-1.91l-6.42,11.04,4.63,7.16s0,0,.01,0c.62,0,1.12.5,1.12,1.12s-.5,1.12-1.12,1.12h0Z"/>
          <path id="path71" class="cls-1" d="M18.02,11l-.07,2.94c0,.21-.18.38-.39.37-.21,0-.38-.18-.37-.39l.06-2.55h-2.32l-6.57,11.31,4.8,7.42s.1-.01.14-.01c.48,0,.87.39.87.87s-.39.87-.87.87c-.48,0-.87-.39-.87-.87,0-.14.03-.28.1-.4l-4.95-7.66c-.08-.12-.08-.27-.01-.4l6.8-11.7c.07-.12.2-.19.33-.19h2.93c.11,0,.2.04.27.12.08.07.12.17.11.27h0Z"/>
          <path class="cls-1" d="M16.95,24.58c-.62,0-1.12-.5-1.12-1.12,0-.12.02-.23.05-.34l-3.26-4.13c-.22-.27-.17-.67.1-.89.11-.09.25-.14.4-.14.2,0,.38.09.5.24l3.27,4.14s.03,0,.05,0c.54,0,1,.38,1.1.91.01.07.02.14.02.21,0,.62-.5,1.12-1.12,1.12Z"/>
          <path id="path84" class="cls-1" d="M17.81,23.46c0,.48-.39.87-.87.87s-.87-.39-.87-.87c0-.14.03-.27.09-.38l-3.35-4.25c-.13-.16-.1-.41.06-.54.16-.13.41-.1.54.06l3.35,4.25c.47-.09.93.22,1.02.69.01.05.02.11.02.16h0Z"/>
          <path class="cls-1" d="M33.29,17.74c-.62,0-1.12-.5-1.12-1.12,0-.12.02-.24.06-.36l-1.07-1.6c-.19-.29-.12-.69.17-.88.11-.07.23-.11.36-.11.21,0,.41.11.53.28l1.03,1.54s.03,0,.04,0c.62,0,1.12.5,1.12,1.12s-.5,1.12-1.12,1.12h0Z"/>
          <path id="path94" class="cls-1" d="M34.15,16.62c0,.48-.39.87-.87.87-.48,0-.86-.39-.87-.86,0-.13.03-.27.09-.39l-1.15-1.71c-.12-.18-.07-.41.11-.53.18-.12.41-.07.53.11l1.12,1.67c.05-.01.11-.02.17-.02.48,0,.87.39.87.87Z"/>
          <path class="cls-1" d="M29.55,28.82c-.12,0-.23-.03-.34-.1-.3-.19-.39-.59-.2-.88l1.74-2.73c-.06-.14-.1-.3-.1-.45,0-.62.5-1.12,1.12-1.12.62,0,1.12.51,1.12,1.12s-.47,1.09-1.06,1.12l-1.75,2.75c-.11.18-.32.29-.54.29Z"/>
          <path id="path104" class="cls-1" d="M32.64,24.66c0,.48-.39.87-.87.87-.03,0-.05,0-.07,0l-1.83,2.87c-.07.12-.2.18-.32.18-.07,0-.14-.02-.21-.06-.18-.11-.23-.35-.12-.53l1.82-2.86c-.08-.13-.14-.29-.14-.46,0-.48.39-.87.87-.87.48,0,.87.39.87.87h0Z"/>
          <path class="cls-1" d="M32.4,30.76c-.62,0-1.12-.5-1.12-1.12s.5-1.12,1.12-1.12h0l2.96-4.54c.12-.18.32-.29.53-.29.12,0,.25.04.35.1.29.19.37.58.18.88l-2.99,4.58c.08.23.09.47.02.71-.09.29-.28.52-.54.67-.16.09-.35.14-.53.14h0Z"/>
          <path id="path114" class="cls-1" d="M36.22,24.53l-3.06,4.69c.23.42.07.95-.35,1.17-.13.07-.27.1-.41.1-.48,0-.87-.39-.87-.87s.39-.87.87-.87c.05,0,.09,0,.14.01l3.05-4.67c.12-.18.35-.23.53-.11.17.11.22.35.11.53h0Z"/>
          <path class="cls-1" d="M39.67,30.86c-.62,0-1.12-.5-1.12-1.12,0-.59.46-1.07,1.04-1.12l2.18-3.49h-2.4l-3.07,4.83c-.12.18-.32.3-.54.3-.12,0-.24-.03-.34-.1-.3-.19-.38-.58-.2-.88l3.26-5.13c.11-.18.32-.29.54-.29h3.9c.23,0,.44.12.56.33h0c.1.22.09.47-.03.66l-2.76,4.43c.07.15.1.31.1.47,0,.62-.5,1.12-1.12,1.12Z"/>
          <path id="path124" class="cls-1" d="M43.24,24.71l-2.84,4.56c.09.14.14.3.14.48,0,.48-.39.87-.87.87s-.87-.39-.87-.87c0-.48.39-.86.86-.87.02,0,.04,0,.06,0l2.49-4h-3l-3.15,4.95c-.11.18-.35.23-.53.12-.18-.11-.23-.35-.12-.53l3.26-5.13c.07-.11.19-.18.32-.18h3.9c.14,0,.27.08.34.2.06.12.06.27-.02.39h0Z"/>
          <path class="cls-1" d="M29.13,19.59c-.35,0-.64-.29-.64-.64v-4.34c0-.35.29-.64.64-.64s.64.29.64.64v3.71h6.87l-3.65-6.7h-4.99c-.21.3-.55.48-.92.48-.62,0-1.12-.5-1.12-1.12s.5-1.12,1.12-1.12c.37,0,.71.18.92.48h5.36c.23,0,.45.13.56.33l4.34,7.97c.11.21.1.44-.01.63-.12.19-.32.31-.55.31h-8.58Z"/>
          <path id="path134" class="cls-1" d="M38.04,19.15c-.07.12-.2.19-.33.19h-8.58c-.21,0-.38-.17-.38-.38v-4.34c0-.21.17-.38.38-.38s.38.17.38.38v3.96h7.56l-3.92-7.2h-5.28c-.15.3-.45.48-.78.48-.48,0-.87-.39-.87-.87s.39-.87.87-.87c.34,0,.63.2.78.48h5.51c.14,0,.27.08.34.2l4.34,7.97c.06.12.06.26,0,.38h0Z"/>
          <path class="cls-1" d="M17.41,19.23c-.2,0-.39-.09-.51-.25l-1.61-2.1s-.03,0-.04,0c-.62,0-1.12-.5-1.12-1.12s.5-1.12,1.12-1.12,1.12.5,1.12,1.12c0,.12-.02.24-.06.36l1.6,2.09c.1.14.15.3.13.47-.02.17-.11.32-.25.42-.11.09-.24.13-.39.13Z"/>
          <path id="path144" class="cls-1" d="M17.65,18.89c-.07.05-.15.08-.23.08-.12,0-.23-.05-.3-.15l-1.7-2.21c-.05.01-.1.01-.15.01-.48,0-.87-.39-.87-.87s.39-.87.87-.87.87.39.87.87c0,.14-.03.27-.1.39l1.69,2.21c.13.17.1.41-.07.54Z"/>
          <path class="cls-1" d="M17.19,30.8c-.21,0-.4-.1-.53-.28l-5.09-7.5s-.01,0-.02,0c-.62,0-1.12-.5-1.12-1.12s.5-1.12,1.12-1.12,1.12.5,1.12,1.12c0,.13-.02.26-.07.38l5.1,7.52c.2.29.12.69-.17.89-.1.07-.23.11-.36.11Z"/>
          <path id="path154" class="cls-1" d="M17.4,30.48c-.07.05-.14.07-.22.07-.12,0-.24-.06-.32-.17l-5.17-7.62s-.09.01-.14.01c-.48,0-.87-.39-.87-.87s.39-.87.87-.87.87.39.87.87c0,.15-.04.29-.1.41l5.18,7.64c.12.18.07.42-.1.53h0Z"/>
          <path class="cls-1" d="M12.42,37.22c-.22,0-.43-.12-.55-.31l-6.43-10.6c-.52-.07-.92-.52-.92-1.05,0-.59.48-1.06,1.06-1.06s1.06.48,1.06,1.06c0,.15-.03.3-.09.43l6.41,10.56c.09.14.12.32.08.48-.04.17-.14.31-.29.39-.1.06-.21.09-.33.09Z"/>
          <path id="path164" class="cls-1" d="M12.62,36.91c-.06.04-.13.06-.2.06-.13,0-.26-.07-.33-.18l-6.5-10.71h0c-.45,0-.81-.36-.81-.81s.36-.81.81-.81.81.36.81.81h0c0,.16-.05.31-.13.44l6.49,10.69c.11.18.05.42-.13.53h0Z"/>
          <path class="cls-1" d="M35.74,36.74c-.11,0-.22-.03-.32-.09-.15-.09-.25-.22-.3-.39-.04-.16-.02-.34.06-.48,0-.01.02-.03.02-.04l1.59-2.54c-.09-.22-.12-.46-.06-.7.07-.29.25-.54.5-.69.18-.11.38-.17.59-.17.62,0,1.12.5,1.12,1.12s-.47,1.09-1.07,1.12l-1.59,2.54c-.11.19-.32.31-.55.31Z"/>
          <path id="path174" class="cls-1" d="M38.7,32.77c0,.48-.39.87-.87.87-.03,0-.06,0-.08,0l-1.67,2.67c-.11.18-.34.25-.52.14-.18-.11-.25-.34-.14-.52,0,0,0-.02.01-.02l1.67-2.67c-.25-.41-.12-.94.28-1.19.14-.08.29-.13.45-.13.48,0,.87.39.87.87Z"/>
          <path class="cls-1" d="M39.21,37.4c-.62,0-1.12-.5-1.12-1.12,0-.58.44-1.05,1-1.11l6.39-10.66c.11-.19.32-.31.55-.31.12,0,.23.03.33.09.14.08.25.22.29.39.04.17.02.34-.07.49l-6.37,10.62c.08.15.12.32.12.5,0,.62-.5,1.12-1.12,1.12Z"/>
          <path id="path184" class="cls-1" d="M46.37,25.03l-6.45,10.75c.1.14.16.31.16.5,0,.48-.39.87-.87.87s-.87-.39-.87-.87.39-.87.87-.87c.01,0,.02,0,.03,0l6.47-10.78c.11-.18.34-.24.53-.13.18.11.24.34.13.52h0Z"/>
        </g>
        <g>
          <path class="cls-3" d="M12.29,41.82c-.23,0-.43-.12-.55-.32L.09,21.69c-.11-.2-.12-.44,0-.64L11.8.32c.11-.2.32-.32.55-.32h23.06c.23,0,.44.12.55.32l11.68,20.16c.11.19.11.44,0,.63-.12.2-.32.32-.56.32h-19.17v9.81h5.24c.35,0,.64.29.64.64v3.4c0,.35-.29.64-.64.64H14.88c-.35,0-.64-.29-.64-.64v-3.3c0-.35.29-.64.64-.64h4.32v-13.49c0-.2.1-.4.26-.52l.97-.7v-3.2c0-.19.08-.36.22-.48l.85-.73v-3.55c0-.35.29-.64.64-.64s.64.29.64.64v1l.64-.53c.11-.1.26-.15.41-.15.02,0,.04,0,.06,0,.17.02.33.1.43.24l1.12,1.43c.09.11.14.25.14.4v1.2l.87.6c.17.12.27.31.27.53v3.17c.3.21.48.55.48.92,0,.62-.5,1.12-1.12,1.12s-1.12-.5-1.12-1.12c0-.36.17-.69.46-.9,0,0,.02-.01.03-.02v-2.84l-.87-.6c-.17-.11-.27-.31-.27-.53v-1.31l-.58-.74-.95.79v1.18c0,.19-.08.36-.22.48l-.85.73v3.23c0,.2-.1.4-.26.52l-.97.7v13.8c0,.35-.29.64-.64.64h-4.32v2.02h17.02v-2.12h-5.24c-.35,0-.64-.29-.64-.64v-11.09c0-.35.29-.64.64-.64h18.7L35.05,1.28H12.73L1.37,21.36l11.28,19.19h22.44l1.07-1.79H15.22s-.04.06-.06.08c-.21.25-.52.4-.85.4-.62,0-1.12-.5-1.12-1.12s.5-1.12,1.12-1.12c.37,0,.71.19.92.48h22.07c.23,0,.44.12.55.32.11.2.11.45,0,.64l-1.84,3.06c-.12.19-.32.31-.55.31H12.29Z"/>
          <path id="path40-2" data-name="path40" class="cls-3" d="M47.43,20.98c-.07.12-.2.19-.33.19h-19.42v10.32h5.49c.21,0,.38.17.38.38v3.4c0,.21-.17.38-.38.38H14.88c-.21,0-.38-.17-.38-.38v-3.3c0-.21.17-.38.38-.38h4.57v-13.74c0-.12.06-.24.16-.31l1.07-.78v-3.33c0-.11.05-.22.13-.29l.94-.8v-3.66c0-.21.17-.38.38-.38s.38.17.38.38v1.54l1.06-.88c.08-.07.18-.1.29-.09.1.01.2.06.26.14l1.12,1.43c.05.07.08.15.08.24v1.33l.98.68c.11.07.16.19.16.32v3.32c.29.14.48.43.48.78,0,.48-.39.87-.87.87s-.87-.39-.87-.87c0-.29.14-.54.35-.69.04-.03.08-.06.13-.08v-3.12l-.98-.68c-.11-.07-.16-.19-.16-.32v-1.4l-.8-1.01-1.25,1.04v1.3c0,.11-.05.22-.13.29l-.94.8v3.35c0,.12-.06.24-.16.31l-1.07.78v13.93c0,.21-.17.38-.38.38h-4.57v2.53h17.53v-2.63h-5.49c-.21,0-.38-.17-.38-.38v-11.09c0-.21.17-.38.38-.38h19.14L35.19,1.02H12.58L1.08,21.36l11.43,19.44h22.73l1.38-2.3H15.08c-.03.06-.07.12-.11.17-.16.19-.39.31-.66.31-.48,0-.87-.39-.87-.87s.39-.87.87-.87c.34,0,.64.2.78.48h22.21c.14,0,.26.07.33.2s.07.27,0,.39l-1.84,3.07c-.07.12-.2.19-.33.19H12.29c-.14,0-.26-.07-.33-.19L.31,21.56c-.07-.12-.07-.26,0-.38L12.02.45c.07-.12.2-.2.33-.2h23.06c.14,0,.26.07.33.19l.64,1.1,11.04,19.05c.07.12.07.26,0,.38h0Z"/>
          <path class="cls-3" d="M41.43,18.71c-.3,0-.58-.12-.79-.33s-.33-.49-.33-.79c0-.16.03-.32.1-.46l-7.61-12.84H13.75c-.35,0-.64-.29-.64-.64s.29-.64.64-.64h19.42c.23,0,.44.12.55.31l7.8,13.15c.58.04,1.04.53,1.04,1.12s-.5,1.12-1.12,1.12h0Z"/>
          <path id="path51-2" data-name="path51" class="cls-3" d="M42.3,17.59c0,.48-.39.87-.87.87-.48,0-.87-.39-.87-.87,0-.17.05-.33.14-.47l-7.76-13.09H13.75c-.21,0-.38-.17-.38-.38s.17-.38.38-.38h19.42c.14,0,.26.07.33.19l7.87,13.27s.04,0,.07,0c.48,0,.87.39.87.87h0Z"/>
          <path class="cls-3" d="M4.35,21.81c-.17,0-.33-.07-.45-.19-.12-.12-.19-.28-.18-.45,0-.11.03-.22.09-.32L12.43,6.29c.12-.19.33-.31.55-.31h17.57c.21-.3.55-.48.92-.48.62,0,1.12.49,1.12,1.1v.02c0,.61-.5,1.12-1.12,1.12-.37,0-.71-.18-.92-.48H13.35l-8.45,14.25c-.11.19-.32.31-.55.31h0Z"/>
          <path id="path61-2" data-name="path61" class="cls-3" d="M32.34,6.61c0,.48-.39.87-.87.86-.33,0-.63-.19-.77-.48H13.2l-8.52,14.37c-.07.12-.2.19-.33.19-.21,0-.38-.17-.38-.39,0-.07.02-.13.05-.19L12.65,6.42c.07-.12.2-.19.33-.19h17.72c.15-.29.45-.48.78-.48.47,0,.86.38.87.85,0,0,0,0,0,.01h0Z"/>
          <path class="cls-3" d="M13.3,31.07c-.62,0-1.12-.5-1.12-1.12,0-.13.02-.26.07-.38l-4.88-7.54c-.13-.2-.14-.46-.02-.66l6.8-11.7c.11-.2.33-.32.55-.32h2.93c.17,0,.33.07.45.19.12.12.19.29.19.46l-.07,2.94c0,.34-.29.62-.63.62h-.02c-.35,0-.62-.3-.62-.65l.05-2.29h-1.91l-6.42,11.04,4.63,7.16s0,0,.01,0c.62,0,1.12.5,1.12,1.12s-.5,1.12-1.12,1.12h0Z"/>
          <path id="path71-2" data-name="path71" class="cls-3" d="M18.02,10l-.07,2.94c0,.21-.18.38-.39.37-.21,0-.38-.18-.37-.39l.06-2.55h-2.32l-6.57,11.31,4.8,7.42s.1-.01.14-.01c.48,0,.87.39.87.87s-.39.87-.87.87c-.48,0-.87-.39-.87-.87,0-.14.03-.28.1-.4l-4.95-7.66c-.08-.12-.08-.27-.01-.4l6.8-11.7c.07-.12.2-.19.33-.19h2.93c.11,0,.2.04.27.12.08.07.12.17.11.27h0Z"/>
          <path class="cls-3" d="M16.95,23.58c-.62,0-1.12-.5-1.12-1.12,0-.12.02-.23.05-.34l-3.26-4.13c-.22-.27-.17-.67.1-.89.11-.09.25-.14.4-.14.2,0,.38.09.5.24l3.27,4.14s.03,0,.05,0c.54,0,1,.38,1.1.91.01.07.02.14.02.21,0,.62-.5,1.12-1.12,1.12Z"/>
          <path id="path84-2" data-name="path84" class="cls-3" d="M17.81,22.46c0,.48-.39.87-.87.87s-.87-.39-.87-.87c0-.14.03-.27.09-.38l-3.35-4.25c-.13-.16-.1-.41.06-.54.16-.13.41-.1.54.06l3.35,4.25c.47-.09.93.22,1.02.69.01.05.02.11.02.16h0Z"/>
          <path class="cls-3" d="M33.29,16.74c-.62,0-1.12-.5-1.12-1.12,0-.12.02-.24.06-.36l-1.07-1.6c-.19-.29-.12-.69.17-.88.11-.07.23-.11.36-.11.21,0,.41.11.53.28l1.03,1.54s.03,0,.04,0c.62,0,1.12.5,1.12,1.12s-.5,1.12-1.12,1.12h0Z"/>
          <path id="path94-2" data-name="path94" class="cls-3" d="M34.15,15.62c0,.48-.39.87-.87.87-.48,0-.86-.39-.87-.86,0-.13.03-.27.09-.39l-1.15-1.71c-.12-.18-.07-.41.11-.53.18-.12.41-.07.53.11l1.12,1.67c.05-.01.11-.02.17-.02.48,0,.87.39.87.87Z"/>
          <path class="cls-3" d="M29.55,27.82c-.12,0-.23-.03-.34-.1-.3-.19-.39-.59-.2-.88l1.74-2.73c-.06-.14-.1-.3-.1-.45,0-.62.5-1.12,1.12-1.12.62,0,1.12.51,1.12,1.12s-.47,1.09-1.06,1.12l-1.75,2.75c-.11.18-.32.29-.54.29Z"/>
          <path id="path104-2" data-name="path104" class="cls-3" d="M32.64,23.66c0,.48-.39.87-.87.87-.03,0-.05,0-.07,0l-1.83,2.87c-.07.12-.2.18-.32.18-.07,0-.14-.02-.21-.06-.18-.11-.23-.35-.12-.53l1.82-2.86c-.08-.13-.14-.29-.14-.46,0-.48.39-.87.87-.87.48,0,.87.39.87.87h0Z"/>
          <path class="cls-3" d="M32.4,29.76c-.62,0-1.12-.5-1.12-1.12s.5-1.12,1.12-1.12h0l2.96-4.54c.12-.18.32-.29.53-.29.12,0,.25.04.35.1.29.19.37.58.18.88l-2.99,4.58c.08.23.09.47.02.71-.09.29-.28.52-.54.67-.16.09-.35.14-.53.14h0Z"/>
          <path id="path114-2" data-name="path114" class="cls-3" d="M36.22,23.53l-3.06,4.69c.23.42.07.95-.35,1.17-.13.07-.27.1-.41.1-.48,0-.87-.39-.87-.87s.39-.87.87-.87c.05,0,.09,0,.14.01l3.05-4.67c.12-.18.35-.23.53-.11.17.11.22.35.11.53h0Z"/>
          <path class="cls-3" d="M39.67,29.86c-.62,0-1.12-.5-1.12-1.12,0-.59.46-1.07,1.04-1.12l2.18-3.49h-2.4l-3.07,4.83c-.12.18-.32.3-.54.3-.12,0-.24-.03-.34-.1-.3-.19-.38-.58-.2-.88l3.26-5.13c.11-.18.32-.29.54-.29h3.9c.23,0,.44.12.56.33h0c.1.22.09.47-.03.66l-2.76,4.43c.07.15.1.31.1.47,0,.62-.5,1.12-1.12,1.12Z"/>
          <path id="path124-2" data-name="path124" class="cls-3" d="M43.24,23.71l-2.84,4.56c.09.14.14.3.14.48,0,.48-.39.87-.87.87s-.87-.39-.87-.87c0-.48.39-.86.86-.87.02,0,.04,0,.06,0l2.49-4h-3l-3.15,4.95c-.11.18-.35.23-.53.12-.18-.11-.23-.35-.12-.53l3.26-5.13c.07-.11.19-.18.32-.18h3.9c.14,0,.27.08.34.2.06.12.06.27-.02.39h0Z"/>
          <path class="cls-3" d="M29.13,18.59c-.35,0-.64-.29-.64-.64v-4.34c0-.35.29-.64.64-.64s.64.29.64.64v3.71h6.87l-3.65-6.7h-4.99c-.21.3-.55.48-.92.48-.62,0-1.12-.5-1.12-1.12s.5-1.12,1.12-1.12c.37,0,.71.18.92.48h5.36c.23,0,.45.13.56.33l4.34,7.97c.11.21.1.44-.01.63-.12.19-.32.31-.55.31h-8.58Z"/>
          <path id="path134-2" data-name="path134" class="cls-3" d="M38.04,18.15c-.07.12-.2.19-.33.19h-8.58c-.21,0-.38-.17-.38-.38v-4.34c0-.21.17-.38.38-.38s.38.17.38.38v3.96h7.56l-3.92-7.2h-5.28c-.15.3-.45.48-.78.48-.48,0-.87-.39-.87-.87s.39-.87.87-.87c.34,0,.63.2.78.48h5.51c.14,0,.27.08.34.2l4.34,7.97c.06.12.06.26,0,.38h0Z"/>
          <path class="cls-3" d="M17.41,18.23c-.2,0-.39-.09-.51-.25l-1.61-2.1s-.03,0-.04,0c-.62,0-1.12-.5-1.12-1.12s.5-1.12,1.12-1.12,1.12.5,1.12,1.12c0,.12-.02.24-.06.36l1.6,2.09c.1.14.15.3.13.47-.02.17-.11.32-.25.42-.11.09-.24.13-.39.13Z"/>
          <path id="path144-2" data-name="path144" class="cls-3" d="M17.65,17.89c-.07.05-.15.08-.23.08-.12,0-.23-.05-.3-.15l-1.7-2.21c-.05.01-.1.01-.15.01-.48,0-.87-.39-.87-.87s.39-.87.87-.87.87.39.87.87c0,.14-.03.27-.1.39l1.69,2.21c.13.17.1.41-.07.54Z"/>
          <path class="cls-3" d="M17.19,29.8c-.21,0-.4-.1-.53-.28l-5.09-7.5s-.01,0-.02,0c-.62,0-1.12-.5-1.12-1.12s.5-1.12,1.12-1.12,1.12.5,1.12,1.12c0,.13-.02.26-.07.38l5.1,7.52c.2.29.12.69-.17.89-.1.07-.23.11-.36.11Z"/>
          <path id="path154-2" data-name="path154" class="cls-3" d="M17.4,29.48c-.07.05-.14.07-.22.07-.12,0-.24-.06-.32-.17l-5.17-7.62s-.09.01-.14.01c-.48,0-.87-.39-.87-.87s.39-.87.87-.87.87.39.87.87c0,.15-.04.29-.1.41l5.18,7.64c.12.18.07.42-.1.53h0Z"/>
          <path class="cls-3" d="M12.42,36.22c-.22,0-.43-.12-.55-.31l-6.43-10.6c-.52-.07-.92-.52-.92-1.05,0-.59.48-1.06,1.06-1.06s1.06.48,1.06,1.06c0,.15-.03.3-.09.43l6.41,10.56c.09.14.12.32.08.48-.04.17-.14.31-.29.39-.1.06-.21.09-.33.09Z"/>
          <path id="path164-2" data-name="path164" class="cls-3" d="M12.62,35.91c-.06.04-.13.06-.2.06-.13,0-.26-.07-.33-.18l-6.5-10.71h0c-.45,0-.81-.36-.81-.81s.36-.81.81-.81.81.36.81.81h0c0,.16-.05.31-.13.44l6.49,10.69c.11.18.05.42-.13.53h0Z"/>
          <path class="cls-3" d="M35.74,35.74c-.11,0-.22-.03-.32-.09-.15-.09-.25-.22-.3-.39-.04-.16-.02-.34.06-.48,0-.01.02-.03.02-.04l1.59-2.54c-.09-.22-.12-.46-.06-.7.07-.29.25-.54.5-.69.18-.11.38-.17.59-.17.62,0,1.12.5,1.12,1.12s-.47,1.09-1.07,1.12l-1.59,2.54c-.11.19-.32.31-.55.31Z"/>
          <path id="path174-2" data-name="path174" class="cls-3" d="M38.7,31.77c0,.48-.39.87-.87.87-.03,0-.06,0-.08,0l-1.67,2.67c-.11.18-.34.25-.52.14-.18-.11-.25-.34-.14-.52,0,0,0-.02.01-.02l1.67-2.67c-.25-.41-.12-.94.28-1.19.14-.08.29-.13.45-.13.48,0,.87.39.87.87Z"/>
          <path class="cls-3" d="M39.21,36.4c-.62,0-1.12-.5-1.12-1.12,0-.58.44-1.05,1-1.11l6.39-10.66c.11-.19.32-.31.55-.31.12,0,.23.03.33.09.14.08.25.22.29.39.04.17.02.34-.07.49l-6.37,10.62c.08.15.12.32.12.5,0,.62-.5,1.12-1.12,1.12Z"/>
          <path id="path184-2" data-name="path184" class="cls-3" d="M46.37,24.03l-6.45,10.75c.1.14.16.31.16.5,0,.48-.39.87-.87.87s-.87-.39-.87-.87.39-.87.87-.87c.01,0,.02,0,.03,0l6.47-10.78c.11-.18.34-.24.53-.13.18.11.24.34.13.52h0Z"/>
        </g>
      </g>
      <g id="text">
        <g id="main">
          <g>
            <path class="cls-1" d="M61.73,6.68v33.95s-5.67,0-5.67,0V6.68s5.67,0,5.67,0ZM74.7,20.81v4.76s-14.27,0-14.27,0v-4.76s14.27,0,14.27,0ZM79.13,6.68v33.95s-5.62,0-5.62,0V6.68s5.62,0,5.62,0Z"/>
            <path class="cls-1" d="M97.84,11.35l-8.21,29.28h-5.92s10.77-33.95,10.77-33.95h3.71s-.35,4.66-.35,4.66ZM104.53,28.02v4.76s-15.81,0-15.81,0v-4.76s15.81,0,15.81,0ZM104.39,40.63l-8.23-29.29-.37-4.66h3.73s10.82,33.95,10.82,33.95h-5.95Z"/>
            <path class="cls-1" d="M130.14,29.56h5.64c-.11,2.46-.61,4.54-1.49,6.26-.89,1.72-2.16,3.03-3.81,3.93-1.66.9-3.67,1.35-6.05,1.35-1.8,0-3.41-.33-4.83-.98-1.41-.65-2.62-1.6-3.63-2.83-1-1.24-1.76-2.75-2.27-4.53-.51-1.79-.77-3.82-.77-6.09v-6.02c0-2.27.27-4.3.8-6.09.54-1.79,1.31-3.31,2.32-4.56,1.01-1.25,2.24-2.2,3.68-2.83,1.45-.64,3.09-.96,4.92-.96,2.35,0,4.32.45,5.92,1.35,1.6.9,2.84,2.22,3.71,3.96.87,1.74,1.38,3.86,1.54,6.37h-5.67c-.08-1.69-.31-3.05-.69-4.06-.38-1.01-.96-1.74-1.73-2.19-.77-.45-1.8-.68-3.09-.68-1.07,0-1.99.19-2.76.58-.77.39-1.4.99-1.89,1.8-.49.81-.86,1.82-1.1,3.02-.24,1.2-.36,2.62-.36,4.23v6.06c0,1.54.1,2.91.3,4.12.2,1.2.53,2.22.98,3.05.45.83,1.05,1.46,1.8,1.89.75.43,1.68.64,2.8.64,1.34,0,2.41-.21,3.21-.63.8-.42,1.39-1.12,1.78-2.11.39-.99.63-2.34.72-4.07Z"/>
            <path class="cls-1" d="M146.5,6.68v33.95s-5.67,0-5.67,0V6.68s5.67,0,5.67,0ZM163.45,6.68l-11.31,16.39-6.79,8.32-1.07-5.92,4.69-6.95,7.62-11.84h6.85ZM157.22,40.63l-8.58-16.02,3.87-4.06,11.42,20.08h-6.72Z"/>
            <path class="cls-1" d="M186.12,6.68h5.64s0,23.6,0,23.6c0,2.58-.48,4.66-1.45,6.25-.96,1.59-2.27,2.74-3.91,3.47-1.64.73-4.36,1.1-6.36,1.1s-4.54-.37-6.17-1.1c-1.63-.73-2.91-1.89-3.85-3.47-.93-1.59-1.4-3.67-1.4-6.25V6.68s5.64,0,5.64,0v23.6c0,1.6.21,2.84.62,3.73.41.89,1,1.5,1.77,1.83.77.33,2.29.5,3.38.5s2.91-.17,3.67-.5c.76-.33,1.35-.94,1.77-1.83s.63-2.13.63-3.73V6.68Z"/>
            <path class="cls-1" d="M204.54,6.68v33.95s-5.67,0-5.67,0V6.68s5.67,0,5.67,0ZM207.2,40.63h-5.88s.05-4.76.05-4.76h5.83c1.82,0,3.27-.34,4.36-1.01,1.09-.68,1.87-1.71,2.35-3.11.48-1.4.72-3.18.72-5.34v-5.53c0-1.68-.14-3.12-.41-4.31-.27-1.2-.7-2.17-1.27-2.91-.58-.75-1.32-1.3-2.23-1.66-.91-.36-2.02-.54-3.32-.54h-6.2s0-4.78,0-4.78h6.2c1.94,0,3.7.31,5.28.93,1.58.62,2.93,1.54,4.06,2.74,1.13,1.2,1.99,2.69,2.59,4.47.6,1.77.9,3.81.9,6.11v5.48c0,2.3-.3,4.33-.9,6.1-.6,1.76-1.47,3.25-2.6,4.45-1.13,1.2-2.5,2.12-4.1,2.74-1.6.62-3.41.93-5.43.93Z"/>
            <path class="cls-1" d="M242.83,29.56h5.64c-.11,2.46-.61,4.54-1.49,6.26-.89,1.72-2.16,3.03-3.81,3.93s-3.67,1.35-6.05,1.35c-1.8,0-3.41-.33-4.83-.98-1.41-.65-2.62-1.6-3.63-2.83-1-1.24-1.76-2.75-2.27-4.53-.51-1.79-.77-3.82-.77-6.09v-6.02c0-2.27.27-4.3.8-6.09.54-1.79,1.31-3.31,2.32-4.56,1.01-1.25,2.24-2.2,3.68-2.83,1.45-.64,3.09-.96,4.92-.96,2.35,0,4.32.45,5.92,1.35,1.6.9,2.84,2.22,3.71,3.96.87,1.74,1.38,3.86,1.54,6.37h-5.67c-.08-1.69-.31-3.05-.69-4.06-.38-1.01-.96-1.74-1.73-2.19-.77-.45-1.8-.68-3.09-.68-1.07,0-1.99.19-2.76.58-.77.39-1.4.99-1.89,1.8-.49.81-.86,1.82-1.1,3.02-.24,1.2-.36,2.62-.36,4.23v6.06c0,1.54.1,2.91.3,4.12.2,1.2.53,2.22.98,3.05.45.83,1.05,1.46,1.8,1.89.75.43,1.68.64,2.8.64,1.34,0,2.41-.21,3.21-.63.8-.42,1.39-1.12,1.78-2.11.39-.99.63-2.34.72-4.07Z"/>
          </g>
          <g>
            <g>
              <path class="cls-2" d="M61.73,3.68v33.95s-5.67,0-5.67,0V3.68s5.67,0,5.67,0ZM74.7,17.81v4.76s-14.27,0-14.27,0v-4.76s14.27,0,14.27,0ZM79.13,3.68v33.95s-5.62,0-5.62,0V3.68s5.62,0,5.62,0Z"/>
              <path class="cls-2" d="M97.84,8.35l-8.21,29.28h-5.92S94.48,3.68,94.48,3.68h3.71s-.35,4.66-.35,4.66ZM104.53,25.02v4.76s-15.81,0-15.81,0v-4.76s15.81,0,15.81,0ZM104.39,37.63l-8.23-29.29-.37-4.66h3.73s10.82,33.95,10.82,33.95h-5.95Z"/>
              <path class="cls-2" d="M130.14,26.56h5.64c-.11,2.46-.61,4.54-1.49,6.26-.89,1.72-2.16,3.03-3.81,3.93-1.66.9-3.67,1.35-6.05,1.35-1.8,0-3.41-.33-4.83-.98-1.41-.65-2.62-1.6-3.63-2.83-1-1.24-1.76-2.75-2.27-4.53-.51-1.79-.77-3.82-.77-6.09v-6.02c0-2.27.27-4.3.8-6.09.54-1.79,1.31-3.31,2.32-4.56,1.01-1.25,2.24-2.2,3.68-2.83,1.45-.64,3.09-.96,4.92-.96,2.35,0,4.32.45,5.92,1.35,1.6.9,2.84,2.22,3.71,3.96.87,1.74,1.38,3.86,1.54,6.37h-5.67c-.08-1.69-.31-3.05-.69-4.06-.38-1.01-.96-1.74-1.73-2.19-.77-.45-1.8-.68-3.09-.68-1.07,0-1.99.19-2.76.58-.77.39-1.4.99-1.89,1.8-.49.81-.86,1.82-1.1,3.02-.24,1.2-.36,2.62-.36,4.23v6.06c0,1.54.1,2.91.3,4.12.2,1.2.53,2.22.98,3.05.45.83,1.05,1.46,1.8,1.89.75.43,1.68.64,2.8.64,1.34,0,2.41-.21,3.21-.63.8-.42,1.39-1.12,1.78-2.11.39-.99.63-2.34.72-4.07Z"/>
              <path class="cls-2" d="M146.5,3.68v33.95s-5.67,0-5.67,0V3.68s5.67,0,5.67,0ZM163.45,3.68l-11.31,16.39-6.79,8.32-1.07-5.92,4.69-6.95,7.62-11.84h6.85ZM157.22,37.63l-8.58-16.02,3.87-4.06,11.42,20.08h-6.72Z"/>
            </g>
            <g>
              <path class="cls-2" d="M186.12,3.68h5.64s0,23.6,0,23.6c0,2.58-.48,4.66-1.45,6.25-.96,1.59-2.27,2.74-3.91,3.47-1.64.73-4.36,1.1-6.36,1.1s-4.54-.37-6.17-1.1c-1.63-.73-2.91-1.89-3.85-3.47-.93-1.59-1.4-3.67-1.4-6.25V3.68s5.64,0,5.64,0v23.6c0,1.6.21,2.84.62,3.73.41.89,1,1.5,1.77,1.83.77.33,2.29.5,3.38.5s2.91-.17,3.67-.5c.76-.33,1.35-.94,1.77-1.83s.63-2.13.63-3.73V3.68Z"/>
              <path class="cls-2" d="M204.54,3.68v33.95s-5.67,0-5.67,0V3.68s5.67,0,5.67,0ZM207.2,37.63h-5.88s.05-4.76.05-4.76h5.83c1.82,0,3.27-.34,4.36-1.01,1.09-.68,1.87-1.71,2.35-3.11.48-1.4.72-3.18.72-5.34v-5.53c0-1.68-.14-3.12-.41-4.31-.27-1.2-.7-2.17-1.27-2.91-.58-.75-1.32-1.3-2.23-1.66-.91-.36-2.02-.54-3.32-.54h-6.2s0-4.78,0-4.78h6.2c1.94,0,3.7.31,5.28.93,1.58.62,2.93,1.54,4.06,2.74,1.13,1.2,1.99,2.69,2.59,4.47.6,1.77.9,3.81.9,6.11v5.48c0,2.3-.3,4.33-.9,6.1-.6,1.76-1.47,3.25-2.6,4.45-1.13,1.2-2.5,2.12-4.1,2.74-1.6.62-3.41.93-5.43.93Z"/>
              <path class="cls-2" d="M242.83,26.56h5.64c-.11,2.46-.61,4.54-1.49,6.26-.89,1.72-2.16,3.03-3.81,3.93s-3.67,1.35-6.05,1.35c-1.8,0-3.41-.33-4.83-.98-1.41-.65-2.62-1.6-3.63-2.83-1-1.24-1.76-2.75-2.27-4.53-.51-1.79-.77-3.82-.77-6.09v-6.02c0-2.27.27-4.3.8-6.09.54-1.79,1.31-3.31,2.32-4.56,1.01-1.25,2.24-2.2,3.68-2.83,1.45-.64,3.09-.96,4.92-.96,2.35,0,4.32.45,5.92,1.35,1.6.9,2.84,2.22,3.71,3.96.87,1.74,1.38,3.86,1.54,6.37h-5.67c-.08-1.69-.31-3.05-.69-4.06-.38-1.01-.96-1.74-1.73-2.19-.77-.45-1.8-.68-3.09-.68-1.07,0-1.99.19-2.76.58-.77.39-1.4.99-1.89,1.8-.49.81-.86,1.82-1.1,3.02-.24,1.2-.36,2.62-.36,4.23v6.06c0,1.54.1,2.91.3,4.12.2,1.2.53,2.22.98,3.05.45.83,1.05,1.46,1.8,1.89.75.43,1.68.64,2.8.64,1.34,0,2.41-.21,3.21-.63.8-.42,1.39-1.12,1.78-2.11.39-.99.63-2.34.72-4.07Z"/>
            </g>
          </g>
        </g>
        <g id="edition">
          <g>
            <path class="cls-1" d="M262.43,18.61v2.06s-8.8,0-8.8,0v-1.77s4.17-5.41,4.17-5.41c.45-.61.8-1.14,1.05-1.58s.43-.85.52-1.2.15-.7.15-1.04c0-.48-.06-.9-.19-1.26-.13-.36-.32-.65-.57-.86s-.56-.32-.91-.32c-.47,0-.85.12-1.14.37-.29.24-.51.58-.65,1-.14.42-.21.91-.21,1.45h-2.45c0-.89.17-1.7.52-2.45.35-.74.85-1.33,1.51-1.77.66-.44,1.47-.66,2.43-.66.88,0,1.63.17,2.24.52.61.35,1.08.83,1.4,1.46.32.63.48,1.37.48,2.24,0,.48-.06.95-.19,1.42s-.31.94-.54,1.4c-.23.47-.51.93-.84,1.4-.33.47-.68.94-1.08,1.43l-2.63,3.57h5.73Z"/>
            <path class="cls-1" d="M272.82,11.75v2.51c0,1.2-.1,2.21-.31,3.05-.21.84-.5,1.52-.87,2.05-.37.53-.82.91-1.34,1.15-.52.24-1.1.37-1.74.37-.5,0-.97-.08-1.41-.24-.44-.16-.83-.4-1.19-.72-.36-.33-.66-.75-.91-1.27-.25-.52-.44-1.14-.58-1.87-.14-.72-.2-1.57-.2-2.52v-2.51c0-1.2.1-2.22.31-3.05.21-.83.5-1.5.88-2.03.37-.52.82-.9,1.35-1.14s1.11-.36,1.74-.36c.5,0,.98.08,1.42.23.44.15.83.39,1.18.71.35.32.65.74.9,1.25.25.51.44,1.13.58,1.86.13.72.2,1.57.2,2.52ZM270.38,14.61v-3.25c0-.6-.03-1.13-.08-1.6s-.13-.85-.24-1.17c-.1-.32-.23-.58-.38-.78-.15-.2-.32-.35-.51-.45-.19-.09-.4-.14-.63-.14-.28,0-.53.07-.76.22-.23.15-.42.38-.58.71-.16.33-.28.75-.36,1.28-.08.53-.12,1.17-.12,1.93v3.25c0,.61.03,1.15.08,1.61.06.47.13.86.24,1.19.1.33.23.6.37.8s.32.36.51.46c.19.1.4.15.63.15.29,0,.55-.08.78-.23s.42-.4.58-.73c.15-.33.27-.77.35-1.31.08-.54.12-1.19.12-1.94Z"/>
            <path class="cls-1" d="M262.43,36.67v2.06s-8.8,0-8.8,0v-1.77s4.17-5.41,4.17-5.41c.45-.61.8-1.14,1.05-1.58s.43-.85.52-1.2.15-.7.15-1.04c0-.48-.06-.9-.19-1.26-.13-.36-.32-.65-.57-.86s-.56-.32-.91-.32c-.47,0-.85.12-1.14.37-.29.24-.51.58-.65,1-.14.42-.21.91-.21,1.45h-2.45c0-.89.17-1.7.52-2.45.35-.74.85-1.33,1.51-1.77.66-.44,1.47-.66,2.43-.66.88,0,1.63.17,2.24.52.61.35,1.08.83,1.4,1.46.32.63.48,1.37.48,2.24,0,.48-.06.95-.19,1.42s-.31.94-.54,1.4c-.23.47-.51.93-.84,1.4-.33.47-.68.94-1.08,1.43l-2.63,3.57h5.73Z"/>
            <path class="cls-1" d="M270.66,23.34h.27v2.12h-.15c-.76,0-1.41.14-1.93.41-.52.28-.95.66-1.26,1.14-.32.48-.55,1.05-.69,1.69-.14.65-.22,1.33-.22,2.06v2.42c0,.6.05,1.13.15,1.59.1.46.24.84.42,1.15.18.31.38.54.61.7.23.16.46.24.71.24.29,0,.55-.08.78-.23.23-.15.43-.37.6-.65.16-.28.29-.6.37-.98s.13-.79.13-1.25c0-.43-.04-.83-.13-1.2s-.2-.71-.36-.99c-.15-.29-.35-.51-.58-.67s-.5-.24-.8-.24c-.38,0-.73.12-1.03.35s-.54.54-.72.91c-.18.37-.28.77-.3,1.19l-.92-.34c.06-.65.19-1.23.39-1.74.2-.51.46-.95.77-1.32.31-.37.68-.65,1.09-.84.41-.19.86-.29,1.34-.29.63,0,1.18.14,1.64.42s.84.66,1.14,1.14.52,1.02.67,1.64c.14.61.22,1.25.22,1.93,0,.73-.09,1.42-.28,2.05-.19.63-.47,1.19-.83,1.66s-.81.85-1.34,1.11-1.14.4-1.82.4-1.33-.16-1.87-.47c-.54-.31-1-.75-1.37-1.3-.37-.56-.65-1.19-.84-1.92s-.28-1.49-.28-2.3v-1.06c0-1.16.11-2.26.34-3.29.22-1.03.59-1.94,1.09-2.73.5-.79,1.16-1.41,1.98-1.86.82-.45,1.82-.68,3.01-.68Z"/>
          </g>
          <g>
            <path class="cls-2" d="M262.43,16.61v2.06s-8.8,0-8.8,0v-1.77s4.17-5.41,4.17-5.41c.45-.61.8-1.14,1.05-1.58s.43-.85.52-1.2.15-.7.15-1.04c0-.48-.06-.9-.19-1.26-.13-.36-.32-.65-.57-.86s-.56-.32-.91-.32c-.47,0-.85.12-1.14.37-.29.24-.51.58-.65,1-.14.42-.21.91-.21,1.45h-2.45c0-.89.17-1.7.52-2.45.35-.74.85-1.33,1.51-1.77.66-.44,1.47-.66,2.43-.66.88,0,1.63.17,2.24.52.61.35,1.08.83,1.4,1.46.32.63.48,1.37.48,2.24,0,.48-.06.95-.19,1.42s-.31.94-.54,1.4c-.23.47-.51.93-.84,1.4-.33.47-.68.94-1.08,1.43l-2.63,3.57h5.73Z"/>
            <path class="cls-2" d="M272.82,9.75v2.51c0,1.2-.1,2.21-.31,3.05-.21.84-.5,1.52-.87,2.05-.37.53-.82.91-1.34,1.15-.52.24-1.1.37-1.74.37-.5,0-.97-.08-1.41-.24-.44-.16-.83-.4-1.19-.72-.36-.33-.66-.75-.91-1.27-.25-.52-.44-1.14-.58-1.87-.14-.72-.2-1.57-.2-2.52v-2.51c0-1.2.1-2.22.31-3.05.21-.83.5-1.5.88-2.03.37-.52.82-.9,1.35-1.14s1.11-.36,1.74-.36c.5,0,.98.08,1.42.23.44.15.83.39,1.18.71.35.32.65.74.9,1.25.25.51.44,1.13.58,1.86.13.72.2,1.57.2,2.52ZM270.38,12.61v-3.25c0-.6-.03-1.13-.08-1.6s-.13-.85-.24-1.17c-.1-.32-.23-.58-.38-.78-.15-.2-.32-.35-.51-.45-.19-.09-.4-.14-.63-.14-.28,0-.53.07-.76.22-.23.15-.42.38-.58.71-.16.33-.28.75-.36,1.28-.08.53-.12,1.17-.12,1.93v3.25c0,.61.03,1.15.08,1.61.06.47.13.86.24,1.19.1.33.23.6.37.8s.32.36.51.46c.19.1.4.15.63.15.29,0,.55-.08.78-.23s.42-.4.58-.73c.15-.33.27-.77.35-1.31.08-.54.12-1.19.12-1.94Z"/>
            <path class="cls-2" d="M262.43,34.67v2.06s-8.8,0-8.8,0v-1.77s4.17-5.41,4.17-5.41c.45-.61.8-1.14,1.05-1.58s.43-.85.52-1.2.15-.7.15-1.04c0-.48-.06-.9-.19-1.26-.13-.36-.32-.65-.57-.86s-.56-.32-.91-.32c-.47,0-.85.12-1.14.37-.29.24-.51.58-.65,1-.14.42-.21.91-.21,1.45h-2.45c0-.89.17-1.7.52-2.45.35-.74.85-1.33,1.51-1.77.66-.44,1.47-.66,2.43-.66.88,0,1.63.17,2.24.52.61.35,1.08.83,1.4,1.46.32.63.48,1.37.48,2.24,0,.48-.06.95-.19,1.42s-.31.94-.54,1.4c-.23.47-.51.93-.84,1.4-.33.47-.68.94-1.08,1.43l-2.63,3.57h5.73Z"/>
            <path class="cls-2" d="M270.66,21.34h.27v2.12h-.15c-.76,0-1.41.14-1.93.41-.52.28-.95.66-1.26,1.14-.32.48-.55,1.05-.69,1.69-.14.65-.22,1.33-.22,2.06v2.42c0,.6.05,1.13.15,1.59.1.46.24.84.42,1.15.18.31.38.54.61.7.23.16.46.24.71.24.29,0,.55-.08.78-.23.23-.15.43-.37.6-.65.16-.28.29-.6.37-.98s.13-.79.13-1.25c0-.43-.04-.83-.13-1.2s-.2-.71-.36-.99c-.15-.29-.35-.51-.58-.67s-.5-.24-.8-.24c-.38,0-.73.12-1.03.35s-.54.54-.72.91c-.18.37-.28.77-.3,1.19l-.92-.34c.06-.65.19-1.23.39-1.74.2-.51.46-.95.77-1.32.31-.37.68-.65,1.09-.84.41-.19.86-.29,1.34-.29.63,0,1.18.14,1.64.42s.84.66,1.14,1.14.52,1.02.67,1.64c.14.61.22,1.25.22,1.93,0,.73-.09,1.42-.28,2.05-.19.63-.47,1.19-.83,1.66s-.81.85-1.34,1.11-1.14.4-1.82.4-1.33-.16-1.87-.47c-.54-.31-1-.75-1.37-1.3-.37-.56-.65-1.19-.84-1.92s-.28-1.49-.28-2.3v-1.06c0-1.16.11-2.26.34-3.29.22-1.03.59-1.94,1.09-2.73.5-.79,1.16-1.41,1.98-1.86.82-.45,1.82-.68,3.01-.68Z"/>
          </g>
        </g>
      </g>
    </g>
  </g>
</svg>