<?xml version="1.0" encoding="UTF-8"?>
<svg id="Layer_1" data-name="Layer 1" xmlns="http://www.w3.org/2000/svg" xmlns:xlink="http://www.w3.org/1999/xlink" viewBox="0 0 48 48">
  <defs>
    <style>
      .cls-2 {
        fill: #ffd54f;
      }
    </style>
  </defs>
  <g>
    <g>
      <path class="cls-2" d="M12.36,45.08c-.23,0-.44-.12-.55-.32L.09,24.83c-.12-.2-.12-.44,0-.64L11.86,3.34c.11-.2.33-.33.56-.33h23.19c.23,0,.44.12.56.32l11.75,20.27c.11.2.11.44,0,.64-.12.2-.33.32-.56.32h-19.27v9.86h5.27c.35,0,.64.29.64.64v3.42c0,.35-.29.64-.64.64H14.96c-.35,0-.64-.29-.64-.64v-3.32c0-.35.29-.64.64-.64h4.34v-13.56c0-.2.1-.4.26-.52l.97-.71v-3.22c0-.19.08-.37.23-.49l.85-.73v-3.57c0-.35.29-.64.64-.64s.64.29.64.64v1l.64-.53c.11-.1.26-.15.41-.15.02,0,.04,0,.06,0,.18.02.33.1.44.24l1.13,1.44c.09.11.14.25.14.4v1.2l.88.6c.17.12.28.32.28.53v3.19c.3.21.49.56.49.93,0,.62-.51,1.13-1.13,1.13s-1.13-.51-1.13-1.13c0-.36.17-.7.46-.91,0,0,.02-.01.02-.02v-2.85l-.88-.6c-.17-.11-.28-.31-.28-.53v-1.32l-.58-.74-.96.8v1.19c0,.19-.08.37-.23.49l-.85.73v3.25c0,.2-.1.4-.26.52l-.97.71v13.88c0,.35-.29.64-.64.64h-4.34v2.03h17.1v-2.13h-5.27c-.35,0-.64-.29-.64-.64v-11.15c0-.35.29-.64.64-.64h18.8l-11-18.98H12.8L1.39,24.5l11.34,19.29h22.56l1.08-1.8H15.31s-.04.06-.06.08c-.21.25-.53.4-.86.4-.62,0-1.13-.51-1.13-1.13s.51-1.13,1.13-1.13c.37,0,.72.19.93.49h22.19c.23,0,.44.12.56.33.12.2.11.45,0,.65l-1.85,3.08c-.12.19-.33.31-.55.31H12.36Z"/>
      <path id="path40" class="cls-2" d="M47.69,24.12c-.07.12-.2.19-.34.19h-19.53v10.38h5.52c.21,0,.38.17.38.38v3.42c0,.21-.17.38-.38.38H14.96c-.21,0-.38-.17-.38-.38v-3.32c0-.21.17-.38.38-.38h4.6v-13.82c0-.12.06-.24.16-.31l1.07-.78v-3.35c0-.11.05-.22.13-.29l.95-.81v-3.68c0-.21.17-.38.38-.38s.38.17.38.38v1.55l1.06-.89c.08-.07.18-.1.29-.09.1.01.2.06.26.14l1.13,1.44c.05.07.08.15.08.24v1.34l.99.68c.11.07.17.19.17.32v3.33c.29.14.49.44.49.78,0,.48-.39.87-.87.87s-.87-.39-.87-.87c0-.29.14-.54.35-.7.04-.03.09-.06.13-.08v-3.13l-.99-.68c-.11-.07-.17-.19-.17-.32v-1.41l-.8-1.02-1.25,1.04v1.31c0,.11-.05.22-.13.29l-.95.81v3.37c0,.12-.06.24-.16.31l-1.07.78v14.01c0,.21-.17.38-.38.38h-4.6v2.54h17.62v-2.65h-5.52c-.21,0-.38-.17-.38-.38v-11.15c0-.21.17-.38.38-.38h19.25l-11.3-19.5H12.65L1.09,24.5l11.49,19.55h22.85l1.39-2.31H15.16c-.03.06-.07.12-.11.17-.16.19-.4.31-.66.31-.48,0-.87-.39-.87-.87s.39-.87.87-.87c.34,0,.64.2.78.49h22.34c.14,0,.27.07.34.2s.07.27,0,.39l-1.85,3.08c-.07.12-.2.19-.33.19H12.36c-.14,0-.26-.07-.33-.19L.31,24.69c-.07-.12-.07-.27,0-.38L12.09,3.47c.07-.12.2-.2.34-.2h23.19c.14,0,.27.07.34.19l.64,1.11,11.1,19.16c.07.12.07.26,0,.38h0Z"/>
      <path class="cls-2" d="M41.66,21.84c-.62,0-1.13-.51-1.13-1.13,0-.16.03-.32.1-.46l-7.65-12.91H13.83c-.35,0-.64-.29-.64-.64s.29-.64.64-.64h19.52c.23,0,.44.12.55.32l7.84,13.22c.59.04,1.05.53,1.05,1.13s-.51,1.13-1.13,1.13h0Z"/>
      <path id="path51" class="cls-2" d="M42.53,20.71c0,.48-.39.87-.87.87-.48,0-.87-.39-.87-.87,0-.17.05-.33.14-.47l-7.8-13.16H13.83c-.21,0-.38-.17-.38-.38s.17-.38.38-.38h19.52c.14,0,.26.07.33.19l7.91,13.35s.04,0,.07,0c.48,0,.87.39.87.87h0Z"/>
      <path class="cls-2" d="M4.37,24.96c-.17,0-.33-.07-.46-.19-.12-.12-.19-.28-.19-.46,0-.11.03-.22.09-.32l8.68-14.64c.12-.19.33-.31.56-.31h17.67c.21-.3.55-.48.93-.48.62,0,1.13.5,1.13,1.11,0,.64-.51,1.14-1.13,1.14-.38,0-.72-.18-.93-.48H13.42l-8.5,14.33c-.11.19-.32.31-.55.31h0Z"/>
      <path id="path61" class="cls-2" d="M32.52,9.67c0,.48-.39.87-.87.87-.33,0-.63-.19-.78-.48H13.28l-8.57,14.45c-.07.12-.2.19-.33.19-.21,0-.39-.18-.38-.39,0-.07.02-.13.05-.19l8.68-14.64c.07-.12.2-.19.33-.19h17.81c.15-.3.45-.48.78-.48.48,0,.87.38.87.85,0,0,0,0,0,.01h0Z"/>
      <path class="cls-2" d="M13.38,34.26c-.3,0-.59-.12-.8-.33-.21-.21-.33-.5-.33-.8,0-.13.02-.26.07-.38l-4.9-7.58c-.13-.21-.14-.46-.02-.67l6.83-11.77c.12-.2.33-.32.56-.32h2.95c.18,0,.34.07.46.2.12.11.19.28.19.46l-.07,2.96c0,.35-.3.63-.64.63-.37,0-.65-.3-.65-.65l.05-2.3h-1.92l-6.45,11.1,4.66,7.2h.01c.62,0,1.13.51,1.13,1.13s-.51,1.13-1.13,1.13Z"/>
      <path id="path71" class="cls-2" d="M18.12,13.07l-.07,2.96c0,.21-.18.38-.4.38-.21,0-.38-.18-.38-.39l.06-2.56h-2.33l-6.6,11.37,4.83,7.46s.1-.01.14-.01c.48,0,.87.39.87.87s-.39.87-.87.87c-.48,0-.87-.39-.87-.87,0-.14.03-.28.1-.4l-4.98-7.7c-.08-.12-.08-.28-.01-.4l6.83-11.76c.07-.12.2-.19.33-.19h2.95c.11,0,.2.04.28.12.08.07.12.17.11.28h0Z"/>
      <path class="cls-2" d="M17.04,26.73c-.62,0-1.13-.51-1.13-1.13,0-.12.02-.23.05-.34l-3.27-4.15c-.22-.27-.17-.68.1-.9.11-.09.26-.14.4-.14.2,0,.38.09.51.25l3.28,4.16s.03,0,.05,0c.54,0,1.01.39,1.11.92.01.07.02.14.02.21,0,.62-.51,1.13-1.13,1.13Z"/>
      <path id="path84" class="cls-2" d="M17.91,25.6c0,.48-.39.87-.87.87s-.87-.39-.87-.87c0-.14.03-.27.09-.38l-3.36-4.27c-.13-.17-.1-.41.06-.54.17-.13.41-.1.54.06l3.37,4.28c.47-.09.93.22,1.02.7.01.05.02.11.02.16h0Z"/>
      <path class="cls-2" d="M33.47,19.86c-.62,0-1.13-.5-1.13-1.13,0-.12.02-.24.06-.36l-1.08-1.6c-.2-.29-.12-.69.18-.89.11-.07.23-.11.36-.11.21,0,.41.11.53.29l1.04,1.55s.03,0,.04,0c.62,0,1.13.51,1.13,1.13s-.51,1.13-1.13,1.13h0Z"/>
      <path id="path94" class="cls-2" d="M34.34,18.73c0,.48-.39.87-.87.87-.48,0-.87-.39-.87-.87,0-.13.03-.27.09-.39l-1.15-1.72c-.12-.18-.07-.42.11-.53.18-.12.42-.07.53.11l1.13,1.68c.05-.01.11-.02.17-.02.48,0,.87.39.87.87Z"/>
      <path class="cls-2" d="M29.72,31c-.12,0-.24-.03-.34-.1-.3-.19-.39-.59-.2-.89l1.75-2.75c-.06-.14-.1-.3-.1-.45,0-.62.51-1.13,1.13-1.13.62,0,1.13.51,1.13,1.13s-.47,1.09-1.06,1.13l-1.76,2.76c-.12.19-.32.3-.54.3Z"/>
      <path id="path104" class="cls-2" d="M32.82,26.81c0,.48-.39.87-.87.87-.03,0-.05,0-.07,0l-1.84,2.88c-.07.12-.2.18-.33.18-.07,0-.14-.02-.21-.06-.18-.11-.23-.35-.12-.53l1.83-2.87c-.09-.13-.14-.29-.14-.46,0-.48.39-.87.87-.87.48,0,.87.39.87.87h0Z"/>
      <path class="cls-2" d="M32.58,32.94c-.62,0-1.13-.51-1.13-1.13s.51-1.13,1.13-1.13h0l2.98-4.56c.12-.18.32-.29.54-.29.13,0,.25.04.35.1.29.19.37.59.19.89l-3,4.6c.19.52-.02,1.11-.52,1.38-.16.09-.35.14-.54.14Z"/>
      <path id="path114" class="cls-2" d="M36.42,26.68l-3.08,4.72c.23.42.07.95-.35,1.18-.13.07-.27.11-.41.11-.48,0-.87-.39-.87-.87s.39-.87.87-.87c.05,0,.09,0,.14.01l3.06-4.69c.12-.18.36-.23.53-.11.17.11.22.35.11.53h0Z"/>
      <path class="cls-2" d="M39.89,33.05c-.62,0-1.13-.51-1.13-1.13,0-.3.12-.58.33-.8.19-.19.44-.31.71-.33l2.18-3.51h-2.41l-3.09,4.86c-.12.19-.32.3-.54.3-.12,0-.24-.03-.34-.1-.3-.19-.39-.59-.2-.89l3.28-5.16c.11-.18.32-.3.54-.3h3.92c.23,0,.45.13.56.33.11.22.1.47-.03.66l-2.77,4.45c.07.15.1.31.1.47,0,.62-.51,1.13-1.13,1.13Z"/>
      <path id="path124" class="cls-2" d="M43.47,26.86l-2.86,4.59c.09.14.14.3.14.48,0,.48-.39.87-.87.87s-.87-.39-.87-.87c0-.48.39-.87.87-.87.02,0,.04,0,.06,0l2.5-4.02h-3.02l-3.16,4.98c-.11.18-.35.23-.53.12-.18-.11-.23-.35-.12-.53l3.28-5.16c.07-.11.19-.18.33-.18h3.92c.14,0,.27.08.34.2.06.12.06.27-.02.39h0Z"/>
      <path class="cls-2" d="M29.29,21.72c-.35,0-.64-.29-.64-.64v-4.37c0-.35.29-.64.64-.64s.64.29.64.64v3.72h6.9l-3.66-6.73h-5.01c-.21.3-.55.48-.92.48-.63,0-1.13-.51-1.13-1.13s.51-1.13,1.13-1.13c.38,0,.72.18.93.48h5.39c.24,0,.45.13.57.34l4.37,8.01c.11.21.1.45-.01.64-.12.19-.33.31-.55.31h-8.63Z"/>
      <path id="path134" class="cls-2" d="M38.25,21.27c-.07.12-.2.19-.33.19h-8.63c-.21,0-.38-.17-.38-.38v-4.37c0-.21.17-.38.38-.38s.38.17.38.38v3.98h7.6l-3.95-7.24h-5.31c-.15.3-.45.48-.78.48-.48,0-.87-.39-.87-.87s.39-.87.87-.87c.34,0,.64.2.78.48h5.54c.14,0,.27.08.34.2l4.37,8.02c.06.12.06.27,0,.38h0Z"/>
      <path class="cls-2" d="M17.51,21.35c-.2,0-.39-.09-.51-.26l-1.62-2.11s-.03,0-.04,0c-.62,0-1.13-.51-1.13-1.13s.51-1.13,1.13-1.13,1.13.51,1.13,1.13c0,.12-.02.24-.06.36l1.61,2.1c.22.29.16.69-.12.91-.11.09-.25.13-.39.13Z"/>
      <path id="path144" class="cls-2" d="M17.75,21.01c-.07.05-.15.08-.23.08-.12,0-.23-.05-.3-.15l-1.71-2.23c-.05.01-.1.01-.15.01-.48,0-.87-.39-.87-.87s.39-.87.87-.87.87.39.87.87c0,.14-.03.28-.1.4l1.7,2.22c.13.17.1.41-.07.54Z"/>
      <path class="cls-2" d="M17.28,32.99c-.21,0-.41-.1-.53-.28l-5.11-7.54h-.01c-.62,0-1.13-.51-1.13-1.13s.51-1.13,1.13-1.13,1.13.51,1.13,1.13c0,.13-.02.26-.07.38l5.13,7.56c.2.3.12.7-.17.9-.1.07-.23.11-.36.11Z"/>
      <path id="path154" class="cls-2" d="M17.5,32.66c-.07.05-.14.07-.22.07-.12,0-.24-.06-.32-.17l-5.2-7.66s-.09.01-.14.01c-.48,0-.87-.39-.87-.87s.39-.87.87-.87.87.39.87.87c0,.15-.04.29-.1.41l5.21,7.68c.12.18.07.42-.1.54h0Z"/>
      <path class="cls-2" d="M12.49,39.44c-.22,0-.43-.12-.55-.31l-6.47-10.66c-.52-.07-.93-.52-.93-1.06,0-.59.48-1.07,1.07-1.07s1.07.48,1.07,1.07c0,.15-.03.3-.09.43l6.45,10.62c.09.15.12.32.08.49-.04.17-.14.31-.29.4-.1.06-.21.09-.34.09Z"/>
      <path id="path164" class="cls-2" d="M12.69,39.13c-.06.04-.13.06-.2.06-.13,0-.26-.07-.33-.19l-6.54-10.77h0c-.45,0-.81-.36-.81-.81s.36-.81.81-.81.81.36.81.81h0c0,.16-.05.32-.13.44l6.52,10.74c.11.18.05.42-.13.53h0Z"/>
      <path class="cls-2" d="M35.94,38.96c-.11,0-.22-.03-.32-.09-.31-.18-.41-.57-.23-.88,0-.01,1.62-2.59,1.62-2.59-.1-.22-.12-.47-.06-.7.07-.29.25-.54.51-.7.18-.11.38-.17.59-.17.62,0,1.13.51,1.13,1.13s-.48,1.1-1.07,1.13l-1.6,2.56c-.11.19-.32.31-.55.31Z"/>
      <path id="path174" class="cls-2" d="M38.91,34.97c0,.48-.39.87-.87.87-.03,0-.06,0-.09,0l-1.68,2.68c-.11.18-.34.25-.53.14-.18-.11-.25-.34-.14-.53,0,0,0-.02.01-.02l1.68-2.68c-.25-.41-.12-.94.28-1.2.14-.08.3-.13.46-.13.48,0,.87.39.87.87Z"/>
      <path class="cls-2" d="M39.43,39.62c-.62,0-1.13-.51-1.13-1.13,0-.58.44-1.06,1.01-1.12l6.43-10.72c.12-.19.33-.31.55-.31.12,0,.23.03.33.09.14.08.25.22.29.39.04.17.02.34-.07.49l-6.4,10.67c.08.16.12.33.12.5,0,.62-.51,1.13-1.13,1.13Z"/>
      <path id="path184" class="cls-2" d="M46.62,27.18l-6.48,10.81c.1.14.16.32.16.5,0,.48-.39.87-.87.87s-.87-.39-.87-.87.39-.87.87-.87c.01,0,.02,0,.03,0l6.5-10.84c.11-.18.35-.24.53-.13.19.11.24.35.13.53h0Z"/>
    </g>
  </g>
</svg>
